inDegrees=yes
name=ik_S42_A13_T02
DataType=double
version=3
OpenSimVersion=4.3-2021-08-27-4bc7ad9
endheader
time	pelvis_tilt	pelvis_list	pelvis_rotation	pelvis_tx	pelvis_ty	pelvis_tz	hip_flexion_r	hip_adduction_r	hip_rotation_r	knee_angle_r	knee_angle_r_beta	ankle_angle_r	subtalar_angle_r	mtp_angle_r	hip_flexion_l	hip_adduction_l	hip_rotation_l	knee_angle_l	knee_angle_l_beta	ankle_angle_l	subtalar_angle_l	mtp_angle_l	lumbar_extension	lumbar_bending	lumbar_rotation	arm_flex_r	arm_add_r	arm_rot_r	elbow_flex_r	pro_sup_r	wrist_flex_r	wrist_dev_r	arm_flex_l	arm_add_l	arm_rot_l	elbow_flex_l	pro_sup_l	wrist_flex_l	wrist_dev_l
9.439999999999888	-0.04621228215553532	-0.2107886258352172	6.239034559359059	0	0.9399999999999999	0	32.44432189659964	-9.578745113240334	-8.952431620034629	37.72418928245626	0.6584113106244188	0	0	0	32.44432189659964	-9.578745113240334	-8.952431620034629	37.72418928245626	0.6584113106244188	0	0	0	0.21499815984485	-0.1761519370359753	15.40361398813068	99.92366996138966	-39.37257890969018	6.261840139255741	92.03606962474831	78.5413509058173	0	0	11.30835929341555	-7.241298232386512	-2.701022409084544	8.932803916102184	124.0953886376255	0	0
9.459999999999887	-0.00771146170028273	-0.2267887119542602	7.023934599285356	0	0.9399999999999999	0	32.63180388868388	-9.593667057939603	-8.979849418575085	37.95441930797568	0.6624295826066834	0	0	0	32.63180388868388	-9.593667057939603	-8.979849418575085	37.95441930797568	0.6624295826066834	0	0	0	0.2469981881145656	-0.1758062732339911	14.84203043878583	100.530532666885	-36.24283670326663	10.05383277335518	81.80707758323304	80.16889084397992	0	0	11.42954446391506	-7.385732863200854	-2.756154125246336	9.092311503262422	124.4386776719253	0	0
9.479999999999887	0.1475038369498663	-0.2197608863387128	8.032067796086796	0	0.9399999999999999	0	32.88488883087194	-9.612787482727821	-9.01583406383071	38.26906570147754	0.6679211981528164	0	0	0	32.88488883087194	-9.612787482727821	-9.01583406383071	38.26906570147754	0.6679211981528164	0	0	0	0.3920362382280623	-0.1574567894387952	14.20317319600806	103.1648769978666	-31.28802035697661	18.10463138623706	67.51346359666864	81.11731288467951	0	0	11.34490427908465	-7.454075158006711	-2.547841818756605	9.0981987523962	124.6700855501301	0	0
9.499999999999886	0.2603911415543908	-0.2435516762218216	8.518677476180399	0	0.9399999999999999	0	33.13710665526393	-9.630700059265529	-9.050532969911059	38.58586490455748	0.6734503873142554	0	0	0	33.13710665526393	-9.630700059265529	-9.050532969911059	38.58586490455748	0.6734503873142554	0	0	0	0.4978177993290545	-0.237701704886867	14.1697488755689	102.6171159523868	-31.35168448584044	18.93120630342555	58.56484860513709	78.02063367614953	0	0	11.46162532119472	-7.566962712228129	-2.052702252603378	9.264855701539801	124.7293343712592	0	0
9.519999999999886	0.3228476190197146	-0.2891833310355922	9.237654116383608	0	0.9399999999999999	0	33.38763816514288	-9.64821049633068	-9.084678677908174	38.90030343003871	0.6789383748790192	0	0	0	33.38763816514288	-9.64821049633068	-9.084678677908174	38.90030343003871	0.6789383748790192	0	0	0	0.6354340353614294	-0.3421071814475359	14.11854377292731	103.7222274217019	-29.66836659658806	21.43594366656841	46.96793134719093	81.04315378527389	0	0	11.65876594353643	-7.574639429272857	-1.170332991831095	9.493130422477499	124.5062868424514	0	0
9.539999999999885	0.4135324695855988	-0.3755444749906478	7.852437098307296	0	0.9399999999999999	0	34.28822832087896	-9.708574300632199	-9.204651561806871	40.03748786686038	0.6987859875039947	0	0	0	34.28822832087896	-9.708574300632199	-9.204651561806871	40.03748786686038	0.6987859875039947	0	0	0	0.6139647433033073	-0.3417753825664569	15.84758367512844	104.9539262754878	-27.33828908552666	19.2661265267194	26.76737890341222	102.9073592610466	0	0	12.19395803066871	-7.362086247966563	-0.6552610528236144	9.452876032491796	124.1588667720656	0	0
9.559999999999885	0.4516504296477508	-0.4896361723775452	8.276636284315071	0	0.9399999999999999	0	34.36526219501415	-9.713331984707336	-9.214502940298711	40.13189719386135	0.7004337411047536	0	0	0	34.36526219501415	-9.713331984707336	-9.214502940298711	40.13189719386135	0.7004337411047536	0	0	0	0.6611439253547283	-0.4604979664001623	16.08728236729206	104.4056350302734	-26.14152762247709	21.91097324426391	18.58381251020742	111.4514634776373	0	0	12.46991164788562	-7.295401379484676	-0.3657666280706873	9.620062194270609	124.1524031339422	0	0
9.579999999999885	0.5451623143646064	-0.604822313087911	8.947367626694568	0	0.9399999999999999	0	34.52661992038536	-9.723430137414237	-9.235167506576687	40.33439370148361	0.7039679718865519	0	0	0	34.52661992038536	-9.723430137414237	-9.235167506576687	40.33439370148361	0.7039679718865519	0	0	0	0.7636778797085458	-0.6093382391301645	16.00523567098976	100.3703088560483	-23.73504002429808	29.59349547161953	14.88961217509496	108.5219516492132	0	0	12.43160639591022	-7.431883728416457	0.3150867033708419	10.23178441819362	123.1190636741553	0	0
9.599999999999884	0.5204413320717882	-0.776736766961964	9.576697064699006	0	0.9399999999999999	0	34.67127499618872	-9.73232235099057	-9.253514560029716	40.51584395837055	0.7071348762978186	0	0	0	34.67127499618872	-9.73232235099057	-9.253514560029716	40.51584395837055	0.7071348762978186	0	0	0	0.7348482827280965	-0.8011399745792339	15.76586010799726	95.2449517942259	-21.68069243489657	34.89726525941515	12.80138546216068	107.4484564772278	0	0	12.86077464296979	-7.456206171812715	0.02246824563401379	10.04871289242357	123.0793601001848	0	0
9.619999999999884	0.4529928645463811	-0.9433450008441017	9.845614778634539	0	0.9399999999999999	0	34.8090307696468	-9.740739162351291	-9.270924228658895	40.68824045250256	0.7101437627393171	0	0	0	34.8090307696468	-9.740739162351291	-9.270924228658895	40.68824045250256	0.7101437627393171	0	0	0	0.6497545192000824	-0.9600387631430162	15.73686124046441	90.62445812010397	-23.05044663241608	40.28642292108837	16.40027826185084	100.6080371120995	0	0	13.36271456888464	-7.354298544802121	-0.6019740733867882	9.613163196868829	123.1510176120024	0	0
9.639999999999883	0.3287625992212556	-1.043573823357634	9.806873649342124	0	0.9399999999999999	0	34.97642977141207	-9.750544615549279	-9.291604140639494	40.89955967441116	0.7138319789343747	0	0	0	34.97642977141207	-9.750544615549279	-9.291604140639494	40.89955967441116	0.7138319789343747	0	0	0	0.5170787114734503	-1.045262161352327	15.85822996462195	87.73589336957137	-24.79530985957025	42.72279195930525	17.06384768474388	91.66660393287361	0	0	13.83733472807902	-7.024600283265109	-1.264171249326463	9.086939248024731	123.0706200712796	0	0
9.659999999999883	0.2688517641813459	-1.056981627060783	9.886536975927694	0	0.9399999999999999	0	35.12849214389264	-9.759199616834145	-9.310092170301871	41.09240112509506	0.717197697183131	0	0	0	35.12849214389264	-9.759199616834145	-9.310092170301871	41.09240112509506	0.717197697183131	0	0	0	0.4517793636571462	-1.048539131392383	15.75727373810504	85.52791211795838	-25.11168839503432	39.7943019143821	18.19058947954834	89.03210569879984	0	0	13.98099946310066	-6.589409598311417	-1.562917572891515	8.661307720053115	122.5034669837648	0	0
9.679999999999882	0.2462902734397186	-0.8751152906509009	9.725851163056983	0	0.9399999999999999	0	35.13332126076148	-9.759601885861908	-9.310832943385519	41.09711388211953	0.7172799503100545	0	0	0	35.13332126076148	-9.759601885861908	-9.310832943385519	41.09711388211953	0.7172799503100545	0	0	0	0.4582577553862254	-0.8645680731324707	15.67999211126288	84.98189432498391	-24.48585085587352	40.12025142731166	17.49806142975463	89.38233460352319	0	0	13.78506289096019	-5.909960286899862	-1.640115123923962	8.513352061384287	121.8973308786967	0	0
9.699999999999882	0.3109848275910746	-0.7982720441235009	9.985078117407328	0	0.9399999999999999	0	35.6169759799436	-9.785074361321122	-9.367381266316094	41.71268515148807	0.7280236957412164	0	0	0	35.6169759799436	-9.785074361321122	-9.367381266316094	41.71268515148807	0.7280236957412164	0	0	0	0.467745396859203	-0.8200064200533813	15.27324898545728	79.25452842091684	-21.70783374789982	24.7161460227827	15.33654380207688	110.6718052873746	0	0	13.48893018045389	-5.462132464920156	-1.36375491229171	8.299182313018102	120.8199203528814	0	0
9.719999999999882	0.2886673753760605	-0.8024704848942666	9.780265718113846	0	0.9399999999999999	0	35.62220252185731	-9.785483089255193	-9.368155077844746	41.71780627950925	0.7281130762866022	0	0	0	35.62220252185731	-9.785483089255193	-9.368155077844746	41.71780627950925	0.7281130762866022	0	0	0	0.4499267406457431	-0.8228203421034632	15.32047860173024	78.91865621695149	-21.05872028113332	24.63938663798942	12.47120227587393	115.9281463245498	0	0	13.28839536534613	-5.206493990019189	-1.100223266730989	8.224358432483003	120.0788625207992	0	0
9.739999999999881	0.2269662525066105	-0.8335315662552929	9.595889750683607	0	0.9399999999999999	0	35.86659077605372	-9.798021534253129	-9.39623427192917	42.02903504138146	0.7335450429081777	0	0	0	35.86659077605372	-9.798021534253129	-9.39623427192917	42.02903504138146	0.7335450429081777	0	0	0	0.4061846574761653	-0.8703586755060144	15.39524255401706	71.47665948997523	-19.50955109497099	12.06639577227901	11.12329370643294	124.7416340584845	0	0	13.14142797785052	-5.122890001604586	-1.003625130087119	8.063265113665848	119.7956746201385	0	0
9.759999999999881	0.22644795389713	-0.8648349119362174	9.479144899640032	0	0.9399999999999999	0	35.96476191455234	-9.80316493525914	-9.407628679413806	42.15247011769116	0.7356993914022324	0	0	0	35.96476191455234	-9.80316493525914	-9.407628679413806	42.15247011769116	0.7356993914022324	0	0	0	0.4013637791629637	-0.8843014947539625	15.49788699392637	66.73527741166066	-19.36185078721257	8.090680910328322	10.47301690698735	126.6593652426538	0	0	12.69920324808103	-4.832927695142613	-1.464117489248105	7.90060642117719	120.1921256643883	0	0
9.77999999999988	0.2560537965879662	-0.8797544710702357	9.497657363019414	0	0.9399999999999999	0	36.07316467814244	-9.808670918430519	-9.419992256109008	42.29012448633405	0.7381019133648049	0	0	0	36.07316467814244	-9.808670918430519	-9.419992256109008	42.29012448633405	0.7381019133648049	0	0	0	0.4275385941128155	-0.9018547895508581	15.5051860030688	61.81928284956089	-19.05767847494547	6.002400252928964	10.16344852301842	124.0037781389283	0	0	12.41272052478776	-4.734927689996277	-1.994316498067553	7.252025591740267	120.3128309560771	0	0
9.79999999999988	0.298777804112946	-0.8482112414048595	9.605792457185878	0	0.9399999999999999	0	36.08414077612707	-9.809476986789683	-9.421563911844933	42.30085445674803	0.7382891866771705	0	0	0	36.08414077612707	-9.809476986789683	-9.421563911844933	42.30085445674803	0.7382891866771705	0	0	0	0.4708671903761801	-0.8780213609044039	15.35387791466065	57.04910055261706	-18.25885514606654	6.48069155461164	9.848788170236245	119.7751128758625	0	0	12.33428908174817	-4.793649931730471	-2.072148438766077	6.515436668358574	119.7459933642215	0	0
9.819999999999879	0.2736399352080105	-0.8332788463509314	9.90967378643017	0	0.9399999999999999	0	36.09309241901865	-9.810132662201212	-9.422844081553446	42.30960681411431	0.7384419441305231	0	0	0	36.09309241901865	-9.810132662201212	-9.422844081553446	42.30960681411431	0.7384419441305231	0	0	0	0.4457853685420094	-0.8666145109121022	14.92587080292761	52.62782860940204	-17.1791458841022	8.529784855854322	9.602454510945336	118.901922512116	0	0	12.09353980687372	-4.528355437387704	-2.867585341699965	5.884322481994762	119.430604161083	0	0
9.839999999999879	0.2108332140865189	-0.7864309384784789	10.15064344251838	0	0.9399999999999999	0	36.09733163490306	-9.810443796104163	-9.423450926463389	42.31375095303573	0.738514272999362	0	0	0	36.09733163490306	-9.810443796104163	-9.423450926463389	42.31375095303573	0.738514272999362	0	0	0	0.3913539743921121	-0.8219596915307137	14.47393113871996	48.45318827918472	-16.16762950074789	10.54423819408573	11.27563258077376	118.4467372936091	0	0	12.16713043419469	-4.491175750298777	-3.126895217639233	4.939828125187664	118.1372145827517	0	0
9.859999999999879	0.2397337857842596	-0.6846440764254037	10.3289063659798	0	0.9399999999999999	0	36.15735034335172	-9.813462773385751	-9.430257592939768	42.38996678480949	0.7398444902059603	0	0	0	36.15735034335172	-9.813462773385751	-9.430257592939768	42.38996678480949	0.7398444902059603	0	0	0	0.4260322331363727	-0.7186384707571019	14.04005317003209	44.17679706314601	-15.10383844289053	11.61878387495097	10.62748283699503	121.0444494055076	0	0	11.46704073788015	-3.619731530935255	-4.723427407231592	4.291970531349537	117.9734856253033	0	0
